# xmcd
#
# Track frame offsets:
#	150
#	16530
#	35252
#	56777
#	71206
#	93521
#	110615
#	130048
#	153144
#	174471
#	189153
#	205814
#	237494
#	269383
#	285989
#
# Disc length: 4177 seconds
#
# Revision: 0
# Processed by: cddbd v1.5.2PL0 Copyright (c) Steve Scherf et al.
# Submitted via: EasyCDDAExtractor 11.0.0.1
#
DISCID=c6104f0f
DTITLE=Tomb Raider - ΣΥΛΛΟΓΕΣ Tomb Raider Soundtrack
DYEAR=2000
DGENRE=POP
TTITLE0=U2_01 Elevation (Tomb Raider Mix)
TTITLE1=Nine inch nails_02 Deep
TTITLE2=Chemical brothers The_03 Galaxy bounce
TTITLE3=Missy Elliott (Nelly Furtado)_04 Get ur freak on
TTITLE4=Outkast_05 Speedballin'
TTITLE5=Moby_06 Ain't Never learned
TTITLE6=BT_07 The revolution
TTITLE7=Delerium_08 Terra Firma (Lara's Mix)
TTITLE8=Basement Jaxx_09 Where's your head at
TTITLE9=Fat Boy Slim (Bootsy Collins)_10 Illumination
TTITLE10=Fluke_11 Absurd (Whitewash edit)
TTITLE11=Groove Armada_12 Edge hill
TTITLE12=Leftfield_13 Songs of life
TTITLE13=Bosco_14Satellite
TTITLE14=Oxide and Neutrino_15 Devil's nightmare
EXTD=
EXTT0=
EXTT1=
EXTT2=
EXTT3=
EXTT4=
EXTT5=
EXTT6=
EXTT7=
EXTT8=
EXTT9=
EXTT10=
EXTT11=
EXTT12=
EXTT13=
EXTT14=
PLAYORDER=
